<svg width="3200" height="2400" viewBox="0 0 3200 2400" fill="none" xmlns="http://www.w3.org/2000/svg">
<g clip-path="url(#clip0_6_2)">
<rect x="0.0861816" y="-0.381592" width="3200" height="2400" fill="#05040F"/>
<g opacity="0.9" filter="url(#filter0_f_6_2)">
<path d="M1495.87 1225.05C1368.68 1489.12 1050.51 1599.6 786.443 1472.41C522.376 1345.22 410.419 1027.56 537.609 763.496C664.798 499.429 982.971 388.948 1247.04 516.137C1511.1 643.327 1623.06 960.983 1495.87 1225.05Z" fill="url(#paint0_radial_6_2)"/>
</g>
<g opacity="0.75">
<g filter="url(#filter1_f_6_2)">
<path d="M2534.75 2049.33C3046 1743.16 3211.1 1078.59 2904.94 567.34C2598.78 56.09 1934.98 -112.095 1423.73 194.068C912.48 500.231 747.379 1164.8 1053.54 1676.05C1359.7 2187.3 2023.5 2355.49 2534.75 2049.33Z" fill="url(#paint1_radial_6_2)"/>
</g>
<g style="mix-blend-mode:color-dodge" filter="url(#filter2_f_6_2)">
<path d="M1486.67 2239.62C1990.18 2428.13 2551.18 2172.78 2739.69 1669.27L2779.89 1561.9C2968.4 1058.39 2713.05 497.396 2209.54 308.881L2106.19 270.185C1602.68 81.6708 1041.68 337.024 853.169 840.532L812.97 947.901C624.455 1451.41 879.809 2012.4 1383.32 2200.92L1486.67 2239.62Z" fill="url(#paint2_radial_6_2)"/>
</g>
<g style="mix-blend-mode:color-dodge" filter="url(#filter3_f_6_2)">
<path d="M963.348 2024.5C1391.06 2184.64 1868.21 1966.11 2028.35 1538.39C2188.49 1110.68 1972.18 632.52 1544.46 472.383C1116.75 312.246 639.598 530.773 479.461 958.487C319.324 1386.2 535.634 1864.36 963.348 2024.5Z" fill="url(#paint3_radial_6_2)"/>
</g>
</g>
</g>
<defs>
<filter id="filter0_f_6_2" x="-714.397" y="-736.152" width="3462.27" height="3460.85" filterUnits="userSpaceOnUse" color-interpolation-filters="sRGB">
<feFlood flood-opacity="0" result="BackgroundImageFix"/>
<feBlend mode="normal" in="SourceGraphic" in2="BackgroundImageFix" result="shape"/>
<feGaussianBlur stdDeviation="599.751" result="effect1_foregroundBlur_6_2"/>
</filter>
<filter id="filter1_f_6_2" x="354.62" y="-504.029" width="3249.24" height="3251.45" filterUnits="userSpaceOnUse" color-interpolation-filters="sRGB">
<feFlood flood-opacity="0" result="BackgroundImageFix"/>
<feBlend mode="normal" in="SourceGraphic" in2="BackgroundImageFix" result="shape"/>
<feGaussianBlur stdDeviation="272.576" result="effect1_foregroundBlur_6_2"/>
</filter>
<filter id="filter2_f_6_2" x="264.159" y="-278.625" width="3064.54" height="3067.05" filterUnits="userSpaceOnUse" color-interpolation-filters="sRGB">
<feFlood flood-opacity="0" result="BackgroundImageFix"/>
<feBlend mode="normal" in="SourceGraphic" in2="BackgroundImageFix" result="shape"/>
<feGaussianBlur stdDeviation="243.372" result="effect1_foregroundBlur_6_2"/>
</filter>
<filter id="filter3_f_6_2" x="-60.0833" y="-66.8798" width="2627.98" height="2630.64" filterUnits="userSpaceOnUse" color-interpolation-filters="sRGB">
<feFlood flood-opacity="0" result="BackgroundImageFix"/>
<feBlend mode="normal" in="SourceGraphic" in2="BackgroundImageFix" result="shape"/>
<feGaussianBlur stdDeviation="243.372" result="effect1_foregroundBlur_6_2"/>
</filter>
<radialGradient id="paint0_radial_6_2" cx="0" cy="0" r="1" gradientUnits="userSpaceOnUse" gradientTransform="translate(1223.45 1105.02) rotate(-64.8812) scale(2310.58 2315.39)">
<stop stop-color="#5AE9FD"/>
<stop offset="1" stop-color="#5AE9FD" stop-opacity="0"/>
</radialGradient>
<radialGradient id="paint1_radial_6_2" cx="0" cy="0" r="1" gradientUnits="userSpaceOnUse" gradientTransform="translate(1858.66 1320.09) rotate(-145.788) scale(1127.45 1129.8)">
<stop stop-color="#00E29A"/>
<stop offset="1" stop-color="#00E29A" stop-opacity="0"/>
</radialGradient>
<radialGradient id="paint2_radial_6_2" cx="0" cy="0" r="1" gradientUnits="userSpaceOnUse" gradientTransform="translate(2342.73 1107.23) rotate(153.257) scale(956.423 958.416)">
<stop stop-color="#7C75FF"/>
<stop offset="1" stop-color="#484EB7" stop-opacity="0"/>
<stop offset="1" stop-color="#9FA7FF" stop-opacity="0"/>
</radialGradient>
<radialGradient id="paint3_radial_6_2" cx="0" cy="0" r="1" gradientUnits="userSpaceOnUse" gradientTransform="translate(1030.17 1515.36) rotate(-134.681) scale(783.191 784.822)">
<stop stop-color="#FF8B8B"/>
<stop offset="1" stop-color="#FF8B8B" stop-opacity="0.7"/>
</radialGradient>
<clipPath id="clip0_6_2">
<rect width="3200" height="2400" fill="white"/>
</clipPath>
</defs>
</svg>
